<svg width="117" height="21" viewBox="0 0 117 21" fill="none" xmlns="http://www.w3.org/2000/svg">
<mask id="mask0_1_94" style="mask-type:luminance" maskUnits="userSpaceOnUse" x="0" y="0" width="117" height="21">
<path d="M117 0H0V20.3731H117V0Z" fill="white"/>
</mask>
<g mask="url(#mask0_1_94)">
<mask id="mask1_1_94" style="mask-type:luminance" maskUnits="userSpaceOnUse" x="0" y="0" width="117" height="21">
<path d="M117 0H0V20.3731H117V0Z" fill="white"/>
</mask>
<g mask="url(#mask1_1_94)">
<path d="M34.6198 2.90464H27.7569C27.2854 2.90464 26.91 3.04726 26.6248 3.32957C26.3395 3.61188 26.1998 3.99024 26.1998 4.45882V16.1181C26.1998 16.6041 26.325 16.9505 26.5753 17.1542C26.8256 17.3579 27.2272 17.4598 27.7773 17.4598C28.0451 17.4598 28.3041 17.4394 28.5544 17.4016C28.8047 17.3637 28.9939 17.3259 29.119 17.2968V11.604H33.0627C33.3915 11.604 33.6506 11.4992 33.8398 11.2867C34.0289 11.0743 34.1221 10.7716 34.1221 10.3787C34.1221 10.1429 34.0871 9.92755 34.0173 9.72964C33.9474 9.53464 33.8718 9.37166 33.7932 9.24651H29.119V5.28248H33.863C34.1919 5.28248 34.4509 5.1777 34.6401 4.96524C34.8293 4.75278 34.9224 4.44427 34.9224 4.0339C34.9224 3.79815 34.8904 3.57987 34.8293 3.37323C34.7653 3.16949 34.6954 3.01233 34.6168 2.90173" fill="white"/>
<path d="M38.121 2.9046C37.8532 2.9046 37.6029 2.92789 37.3671 2.97445C37.1314 3.02102 36.951 3.06177 36.8258 3.09087V16.1617C36.8258 16.6477 36.9539 16.9853 37.2129 17.1745C37.4719 17.3637 37.859 17.4568 38.38 17.4568C38.6623 17.4568 38.9184 17.4365 39.1454 17.3986C39.3724 17.3608 39.55 17.3171 39.6751 17.2706V4.22595C39.6751 3.7399 39.55 3.39938 39.2997 3.20147C39.0494 3.00647 38.6565 2.90751 38.121 2.90751" fill="white"/>
<path d="M51.0842 6.5805C50.214 6.09445 49.1982 5.84998 48.0341 5.84998C46.8699 5.84998 45.8716 6.09445 44.9956 6.5805C44.1195 7.06654 43.4356 7.7505 42.9495 8.62945C42.4635 9.50841 42.219 10.5533 42.219 11.7611C42.219 12.9689 42.4577 14.0138 42.9379 14.8927C43.4152 15.7717 44.0933 16.4527 44.9723 16.93C45.8483 17.4074 46.8699 17.6489 48.0341 17.6489C49.1982 17.6489 50.2373 17.4103 51.1075 16.93C51.9777 16.4498 52.65 15.7688 53.1303 14.8811C53.6076 13.9934 53.8462 12.9544 53.8462 11.7611C53.8462 10.5678 53.6018 9.50841 53.1157 8.62945C52.6297 7.7505 51.9515 7.06654 51.0813 6.5805M50.1383 14.4358C49.629 15.0703 48.9276 15.3904 48.0341 15.3904C47.1406 15.3904 46.4391 15.0761 45.9298 14.4503C45.4205 13.8217 45.1644 12.9282 45.1644 11.764C45.1644 10.5998 45.4234 9.72378 45.9415 9.07766C46.4595 8.43445 47.158 8.11139 48.0341 8.11139C48.9101 8.11139 49.629 8.43445 50.1383 9.07766C50.6477 9.72087 50.9038 10.6173 50.9038 11.764C50.9038 12.9107 50.6477 13.8013 50.1383 14.4358Z" fill="white"/>
<path d="M82.0601 2.90464H75.1972C74.7257 2.90464 74.3503 3.04726 74.0651 3.32957C73.7827 3.61188 73.6401 3.99024 73.6401 4.45882V16.1181C73.6401 16.6041 73.7653 16.9505 74.0156 17.1542C74.2659 17.3579 74.6675 17.4598 75.2176 17.4598C75.4854 17.4598 75.7444 17.4394 75.9947 17.4016C76.245 17.3637 76.4342 17.3259 76.5593 17.2968V11.604H80.503C80.8319 11.604 81.0909 11.4992 81.2801 11.2867C81.4692 11.0743 81.5624 10.7716 81.5624 10.3787C81.5624 10.1429 81.5275 9.92755 81.4576 9.72964C81.3877 9.53464 81.3121 9.37166 81.2335 9.24651H76.5593V5.28248H81.3033C81.6322 5.28248 81.8913 5.1777 82.0804 4.96524C82.2696 4.75278 82.3627 4.44427 82.3627 4.0339C82.3627 3.79815 82.3307 3.57987 82.2696 3.37323C82.2056 3.16949 82.1357 3.01233 82.0572 2.90173" fill="white"/>
<path d="M71.0091 6.22544C70.7588 6.05372 70.4358 5.96641 70.0429 5.96641C69.5714 5.96641 69.1494 6.07701 68.771 6.29529C68.5673 7.73887 68.3111 9.19992 68.0056 10.6755C67.7 12.1511 67.4031 13.5423 67.1208 14.8433H67.0044C66.9258 14.4824 66.7803 13.9323 66.5678 13.196C66.3553 12.4596 66.1079 11.6156 65.8256 10.6639C65.5433 9.71507 65.2435 8.73716 64.9292 7.73014C64.8361 7.44783 64.6498 7.23828 64.3762 7.10731C64.1026 6.97343 63.7621 6.90649 63.3517 6.90649C63.0374 6.90649 62.7609 6.9385 62.5252 6.99962C62.2894 7.06365 62.0682 7.15678 61.8645 7.28193C61.5502 8.33261 61.2417 9.37164 60.9332 10.3903C60.6276 11.4119 60.3598 12.317 60.1328 13.1116C59.9058 13.9032 59.7428 14.4824 59.6497 14.8433H59.5565C59.4925 14.593 59.4052 14.2263 59.2975 13.7489C59.1869 13.2716 59.0617 12.7012 58.922 12.0405C58.7794 11.3798 58.6339 10.6435 58.4855 9.82566C58.337 9.00783 58.1915 8.15216 58.0518 7.25865C57.9732 6.78716 57.8161 6.45537 57.5803 6.25746C57.3446 6.06246 57.0215 5.9635 56.6141 5.9635C56.2852 5.9635 55.9883 6.02753 55.7293 6.15268C55.4703 6.27783 55.2636 6.42044 55.1064 6.57761C55.217 7.17425 55.3538 7.8582 55.5197 8.62656C55.6856 9.39492 55.8661 10.1895 56.0611 11.0044C56.2561 11.8222 56.454 12.611 56.649 13.3706C56.844 14.1331 57.0361 14.8025 57.2253 15.3846C57.4144 15.9667 57.5803 16.4149 57.72 16.7263C57.8452 16.9766 58.0722 17.1716 58.404 17.3026C58.7329 17.4365 59.1112 17.5034 59.5361 17.5034C59.9116 17.5034 60.2317 17.4627 60.4908 17.3841C60.7498 17.3055 60.9564 17.2036 61.1165 17.0785C61.3057 16.5604 61.5269 15.9114 61.7859 15.1343C62.045 14.3572 62.3127 13.5161 62.5863 12.6139C62.8599 11.7116 63.1073 10.8269 63.3285 9.96537C63.5642 10.8123 63.8058 11.6738 64.0561 12.544C64.3064 13.4142 64.5538 14.2234 64.7982 14.9713C65.0427 15.7164 65.2581 16.3247 65.4473 16.7962C65.6044 17.2677 66.1632 17.5034 67.1179 17.5034C67.4788 17.5034 67.8135 17.4598 68.1191 17.3725C68.4247 17.2881 68.6517 17.1891 68.7914 17.0785C68.9165 16.7642 69.065 16.3422 69.2396 15.8066C69.4113 15.274 69.5976 14.6686 69.7926 13.9934C69.9876 13.3182 70.1826 12.6197 70.3688 11.8979C70.558 11.1761 70.7239 10.4922 70.8753 9.84895C71.0237 9.20574 71.1459 8.63529 71.242 8.14052C71.3351 7.64574 71.3817 7.29649 71.3817 7.09275C71.3817 6.68529 71.2565 6.39425 71.0062 6.22253" fill="white"/>
<path d="M92.2292 6.01585C91.9614 6.01585 91.7111 6.03913 91.4753 6.0857C91.2396 6.13227 91.0592 6.17301 90.934 6.20212V14.8927C90.7448 15.0033 90.4771 15.1081 90.1336 15.21C89.7873 15.3118 89.3653 15.3613 88.8618 15.3613C88.0759 15.3613 87.4648 15.1779 87.0253 14.8083C86.5858 14.4387 86.3646 13.8391 86.3646 13.0067V7.35466C86.3646 6.8366 86.2424 6.48443 85.9979 6.29525C85.7534 6.10607 85.3663 6.01294 84.8308 6.01294C84.5485 6.01294 84.2895 6.03622 84.0537 6.08279C83.818 6.12936 83.6462 6.1701 83.5356 6.19921V13.0533C83.5356 14.1214 83.7481 14.9917 84.1701 15.6669C84.5951 16.3421 85.2062 16.8369 86.0066 17.1512C86.807 17.4656 87.75 17.6227 88.8327 17.6227C89.7291 17.6227 90.5207 17.5325 91.2134 17.352C91.9032 17.1716 92.4678 16.9475 92.9073 16.6826C93.2362 16.4789 93.4661 16.2577 93.5912 16.0249C93.7164 15.7891 93.7804 15.4923 93.7804 15.1285V7.35466C93.7804 6.8366 93.6553 6.48443 93.405 6.29525C93.1547 6.10607 92.7618 6.01294 92.2262 6.01294" fill="white"/>
<path d="M101.185 10.658L99.9592 10.3524C99.4732 10.2419 99.1268 10.0905 98.9231 9.8926C98.7194 9.6976 98.6175 9.46476 98.6175 9.197C98.6175 8.81864 98.798 8.53342 99.1589 8.33551C99.5198 8.14051 100.006 8.04155 100.62 8.04155C101.027 8.04155 101.432 8.08521 101.834 8.16961C102.235 8.25693 102.599 8.36461 102.928 8.49849C103.257 8.63237 103.516 8.76043 103.705 8.88558C103.877 8.76043 104.022 8.59454 104.142 8.39081C104.258 8.18707 104.319 7.95133 104.319 7.68357C104.319 7.29066 104.15 6.95887 103.813 6.68237C103.475 6.40879 103.012 6.19633 102.421 6.0479C101.834 5.89946 101.161 5.82379 100.407 5.82379C98.9609 5.82379 97.8404 6.14103 97.0401 6.77842C96.2397 7.41581 95.838 8.21909 95.838 9.19409C95.838 10.073 96.1087 10.7803 96.65 11.3129C97.1914 11.8484 98.0267 12.2384 99.1589 12.4916L100.547 12.8438C101.051 12.9544 101.417 13.1145 101.653 13.3269C101.889 13.5394 102.005 13.8246 102.005 14.1855C102.005 15.0179 101.33 15.4341 99.9796 15.4341C99.2403 15.4341 98.5826 15.3206 98.0005 15.0936C97.4184 14.8666 96.9091 14.6104 96.4696 14.3281C96.2659 14.4707 96.1 14.6483 95.9748 14.8695C95.8497 15.0907 95.7856 15.3322 95.7856 15.6C95.7856 16.2141 96.1873 16.706 96.9877 17.0843C97.788 17.4627 98.8154 17.6489 100.073 17.6489C101.609 17.6489 102.785 17.3375 103.594 16.7176C104.403 16.0977 104.808 15.2449 104.808 14.1622C104.808 13.2513 104.52 12.512 103.947 11.9386C103.373 11.3653 102.451 10.9374 101.179 10.6551" fill="white"/>
<path d="M116.671 11.7087C116.892 11.4963 117 11.1703 117 10.7308C117 9.78782 116.779 8.94961 116.339 8.21035C115.9 7.4711 115.292 6.89192 114.514 6.467C113.737 6.04207 112.838 5.83252 111.816 5.83252C111.063 5.83252 110.352 5.95476 109.686 6.19633C109.019 6.43789 108.429 6.80461 107.919 7.29065C107.41 7.7767 107.008 8.38207 106.717 9.10386C106.426 9.82565 106.281 10.6668 106.281 11.6243C106.281 12.9427 106.54 14.0487 107.058 14.9451C107.576 15.8415 108.304 16.511 109.235 16.9592C110.169 17.4074 111.24 17.6315 112.451 17.6315C113.237 17.6315 113.929 17.5529 114.535 17.3957C115.14 17.2386 115.62 17.0145 115.984 16.7234C116.345 16.4324 116.526 16.0918 116.526 15.6989C116.526 15.4486 116.459 15.2158 116.325 15.0033C116.191 14.7909 116.022 14.6221 115.818 14.4969C115.472 14.7327 115.021 14.948 114.465 15.146C113.906 15.341 113.301 15.4399 112.64 15.4399C111.651 15.4399 110.836 15.1954 110.189 14.7094C109.68 14.3252 109.331 13.7693 109.136 13.0504L115.746 12.0929C116.138 12.0463 116.444 11.9183 116.665 11.7058M108.955 11.0568C109.005 10.1109 109.279 9.37162 109.782 8.84483C110.323 8.28021 111.002 7.99789 111.819 7.99789C112.637 7.99789 113.211 8.222 113.633 8.67021C114.057 9.11841 114.29 9.64812 114.34 10.2593L108.955 11.0568Z" fill="white"/>
<path d="M11.2373 12.3053C13.3183 13.1872 15.3177 14.232 17.4802 14.7152C18.4406 14.8753 19.4156 14.9538 20.3732 14.9538V9.651H19.5728C16.61 9.651 13.8771 11.179 11.2344 12.3024" fill="#DA3D0B"/>
<path d="M5.07291 13.9934C4.11246 13.9149 3.1491 13.9149 2.19157 13.9149H0V18.784C0 19.663 0.71306 20.376 1.59201 20.376H18.7811C19.6601 20.376 20.3731 19.663 20.3731 18.784V18.1699C18.2951 18.1699 16.121 17.9022 14.1972 17.0989C11.1587 16.0569 8.3559 14.0749 5.07291 13.9934Z" fill="#DA3D0B"/>
<path d="M18.7811 0H1.59201C0.71306 0 0 0.71306 0 1.59201V10.6202C1.92381 10.6202 3.95239 10.6988 5.87328 10.5387C8.51597 10.3001 10.8356 8.85358 13.3182 7.89022C15.5593 6.92687 17.972 6.36224 20.3731 6.44373V1.59201C20.3731 0.71306 19.6601 0 18.7811 0Z" fill="#DA3D0B"/>
<path d="M20.3731 9.65392V6.44079C17.972 6.36221 15.5593 6.92684 13.3182 7.88728C10.8356 8.85064 8.51597 10.2971 5.87328 10.5358C3.95239 10.6988 1.92381 10.6173 0 10.6173V13.909H2.19448C3.15202 13.909 4.11537 13.909 5.07582 13.9876C8.35881 14.0662 11.1587 16.0511 14.2001 17.093C16.1239 17.8963 18.298 18.1641 20.376 18.1641V14.9509C19.4185 14.9509 18.4435 14.8724 17.4831 14.7123C15.3206 14.2262 13.3211 13.1843 11.2401 12.3024C13.8828 11.1761 16.6128 9.65101 19.5786 9.65101H20.379L20.3731 9.65392Z" fill="white"/>
</g>
</g>
</svg>
