<svg id="visual" viewBox="0 0 1600 900" width="1600" height="900" xmlns="http://www.w3.org/2000/svg" xmlns:xlink="http://www.w3.org/1999/xlink" version="1.1"><rect x="0" y="0" width="1600" height="900" fill="#212123"></rect><path d="M0 526L38.2 526.7C76.3 527.3 152.7 528.7 228.8 539.7C305 550.7 381 571.3 457.2 592.5C533.3 613.7 609.7 635.3 685.8 631.2C762 627 838 597 914.2 576.2C990.3 555.3 1066.7 543.7 1142.8 543.3C1219 543 1295 554 1371.2 557.3C1447.3 560.7 1523.7 556.3 1561.8 554.2L1600 552L1600 901L1561.8 901C1523.7 901 1447.3 901 1371.2 901C1295 901 1219 901 1142.8 901C1066.7 901 990.3 901 914.2 901C838 901 762 901 685.8 901C609.7 901 533.3 901 457.2 901C381 901 305 901 228.8 901C152.7 901 76.3 901 38.2 901L0 901Z" fill="#8e0101"></path><path d="M0 688L38.2 675.5C76.3 663 152.7 638 228.8 629.7C305 621.3 381 629.7 457.2 644C533.3 658.3 609.7 678.7 685.8 682.8C762 687 838 675 914.2 674.8C990.3 674.7 1066.7 686.3 1142.8 674.8C1219 663.3 1295 628.7 1371.2 616.8C1447.3 605 1523.7 616 1561.8 621.5L1600 627L1600 901L1561.8 901C1523.7 901 1447.3 901 1371.2 901C1295 901 1219 901 1142.8 901C1066.7 901 990.3 901 914.2 901C838 901 762 901 685.8 901C609.7 901 533.3 901 457.2 901C381 901 305 901 228.8 901C152.7 901 76.3 901 38.2 901L0 901Z" fill="#72010a"></path><path d="M0 712L38.2 715.8C76.3 719.7 152.7 727.3 228.8 733.5C305 739.7 381 744.3 457.2 749.7C533.3 755 609.7 761 685.8 760.5C762 760 838 753 914.2 744C990.3 735 1066.7 724 1142.8 725.7C1219 727.3 1295 741.7 1371.2 738.8C1447.3 736 1523.7 716 1561.8 706L1600 696L1600 901L1561.8 901C1523.7 901 1447.3 901 1371.2 901C1295 901 1219 901 1142.8 901C1066.7 901 990.3 901 914.2 901C838 901 762 901 685.8 901C609.7 901 533.3 901 457.2 901C381 901 305 901 228.8 901C152.7 901 76.3 901 38.2 901L0 901Z" fill="#56050d"></path><path d="M0 791L38.2 785.8C76.3 780.7 152.7 770.3 228.8 773.8C305 777.3 381 794.7 457.2 802.7C533.3 810.7 609.7 809.3 685.8 796.8C762 784.3 838 760.7 914.2 749.7C990.3 738.7 1066.7 740.3 1142.8 747.5C1219 754.7 1295 767.3 1371.2 767.3C1447.3 767.3 1523.7 754.7 1561.8 748.3L1600 742L1600 901L1561.8 901C1523.7 901 1447.3 901 1371.2 901C1295 901 1219 901 1142.8 901C1066.7 901 990.3 901 914.2 901C838 901 762 901 685.8 901C609.7 901 533.3 901 457.2 901C381 901 305 901 228.8 901C152.7 901 76.3 901 38.2 901L0 901Z" fill="#3a070a"></path><path d="M0 828L38.2 831.3C76.3 834.7 152.7 841.3 228.8 837.3C305 833.3 381 818.7 457.2 811.5C533.3 804.3 609.7 804.7 685.8 804.3C762 804 838 803 914.2 812C990.3 821 1066.7 840 1142.8 845.7C1219 851.3 1295 843.7 1371.2 840.5C1447.3 837.3 1523.7 838.7 1561.8 839.3L1600 840L1600 901L1561.8 901C1523.7 901 1447.3 901 1371.2 901C1295 901 1219 901 1142.8 901C1066.7 901 990.3 901 914.2 901C838 901 762 901 685.8 901C609.7 901 533.3 901 457.2 901C381 901 305 901 228.8 901C152.7 901 76.3 901 38.2 901L0 901Z" fill="#210101"></path></svg>