<svg width="91" height="29" viewBox="0 0 91 29" fill="none" xmlns="http://www.w3.org/2000/svg">
<path d="M24.7052 7.1085L12.4713 0.0418973L12.3875 0L12.3037 0.0418973L0.153622 7.0666L0.0837935 7.1085L0 7.15039V21.4512L0.0837935 21.4931L12.3177 28.5597L12.4015 28.6016L12.4853 28.5597L24.5516 21.6048L24.7191 21.507L24.8029 21.4652V7.15039L24.7052 7.1085ZM11.1865 1.8295L8.19782 7.01074H2.20657L11.1865 1.8295ZM7.69506 7.86264L6.29849 10.2927L2.09484 7.86264H7.69506ZM6.60574 11.4378L11.5496 14.3008L6.60574 17.1498L4.95779 14.2868L6.60574 11.4378ZM5.87952 11.0189L4.48296 13.4489L1.67587 8.58886L5.87952 11.0189ZM0.991558 9.11955L3.9802 14.3008L0.991558 19.482V9.11955ZM4.469 15.1527L5.86556 17.5827L1.66191 20.0127L4.469 15.1527ZM6.29849 18.3089L7.69506 20.7389H2.09484L6.29849 18.3089ZM2.20657 21.5908H8.18385L11.1725 26.7721L2.20657 21.5908ZM11.9825 26.4509L9.17541 21.5908H11.9825V26.4509ZM11.9825 20.7389H8.68661L7.03867 17.876L11.9825 15.013V20.7389ZM11.9825 13.5606L7.03867 10.6977L8.68661 7.83471H11.9825V13.5606ZM11.9825 6.99677H9.17541L11.9825 2.13674V6.99677ZM18.9374 11.0189L23.141 8.58886L20.3339 13.4489L18.9374 11.0189ZM19.8451 14.3008L18.1972 17.1498L13.2534 14.2868L18.1972 11.4239L19.8451 14.3008ZM18.5044 10.2927L17.1079 7.86264H22.7081L18.5044 10.2927ZM22.5964 6.99677H16.6191L13.6304 1.81553L22.5964 6.99677ZM12.8204 2.13674L15.6275 6.99677H12.8204V2.13674ZM12.8204 7.86264H16.1163L17.7643 10.7256L12.8204 13.5885V7.86264ZM12.8204 15.041L17.7643 17.9039L16.1163 20.7529H12.8204V15.041ZM12.8204 21.5908H15.6275L12.8204 26.4509V21.5908ZM13.6304 26.7721L16.6191 21.5908H22.5964L13.6304 26.7721ZM17.1079 20.7389L18.5044 18.3089L22.7081 20.7389H17.1079ZM18.9374 17.5687L20.3339 15.1387L23.141 19.9988L18.9374 17.5687ZM23.8114 19.482L20.8227 14.3008L23.8114 9.11955V19.482Z" fill="url(#paint0_linear_1_134)"/>
<path d="M28.0709 18.4346H33.9225V18.9653H28.6714V23.3784H33.4198V23.9231H28.6714V28.4619H28.0709V18.4346Z" fill="white"/>
<path d="M34.942 25.4454C34.942 23.7136 36.3246 22.3171 38.0843 22.3171C39.8439 22.3171 41.1986 23.7136 41.1986 25.4454C41.1986 27.1771 39.8439 28.5876 38.0843 28.5876C36.3246 28.5876 34.942 27.1771 34.942 25.4454ZM40.5981 25.4454C40.5981 23.9511 39.5786 22.8338 38.0843 22.8338C36.59 22.8338 35.5425 23.9511 35.5425 25.4454C35.5425 26.9397 36.59 28.0709 38.0843 28.0709C39.5786 28.0709 40.5981 26.9397 40.5981 25.4454Z" fill="white"/>
<path d="M42.7767 26.2413V22.4567H43.3493V26.1576C43.3493 27.3865 43.9219 28.0708 45.0811 28.0708C46.3799 28.0708 47.2876 27.191 47.2876 25.8084V22.4567H47.8602V28.4758H47.2876L47.3016 27.1491C46.8966 28.0429 46.0726 28.6015 45.0112 28.6015C43.6705 28.6015 42.7767 27.7217 42.7767 26.2413Z" fill="white"/>
<path d="M49.4243 22.4567H49.9969L49.9829 23.7974C50.3879 22.8897 51.2259 22.3171 52.2873 22.3171C53.628 22.3171 54.5218 23.2109 54.5218 24.7052V28.4619H53.9492V24.803C53.9492 23.56 53.3766 22.8338 52.2174 22.8338C50.9186 22.8338 50.0109 23.6857 50.0109 25.0962V28.4619H49.4383V22.4567H49.4243Z" fill="white"/>
<path d="M56.0859 25.4454C56.0859 23.6718 57.3428 22.3171 59.0746 22.3171C60.3036 22.3171 61.1834 22.9875 61.6163 23.8813V17.8202H62.1889V28.476H61.6163L61.6443 26.9816C61.2113 27.9034 60.2198 28.6016 59.0606 28.6016C57.3428 28.5877 56.0859 27.2191 56.0859 25.4454ZM61.6722 25.4454C61.6722 23.9511 60.6667 22.8338 59.1584 22.8338C57.6641 22.8338 56.7144 23.9511 56.7144 25.4454C56.7144 26.9397 57.6641 28.071 59.1584 28.071C60.6667 28.071 61.6722 26.9397 61.6722 25.4454Z" fill="white"/>
<path d="M68.0684 24.6912C68.0684 23.3366 67.4539 22.8198 66.4623 22.8198C65.5406 22.8198 64.9261 23.1969 64.4932 23.8533L64.0882 23.56C64.5909 22.7779 65.4428 22.3171 66.4763 22.3171C67.7192 22.3171 68.6409 23.0712 68.6409 24.6354V28.4759H68.0684L68.0963 27.5542C67.7192 28.1268 67.0489 28.6016 66.0154 28.6016C64.6468 28.6016 63.739 27.9592 63.739 26.7581C63.739 25.5711 64.7864 24.9985 65.9456 24.9985H68.0684V24.6912ZM66.0154 25.4593C65.0937 25.4593 64.3256 25.8085 64.3256 26.7302C64.3256 27.6519 64.9261 28.0709 66.0852 28.0709C67.0908 28.0709 68.0823 27.4844 68.0823 26.5487V25.4593H66.0154Z" fill="white"/>
<path d="M71.2107 26.8698V22.9315H70.261V22.4427H71.2107V20.3339H71.7832V22.4427H73.515V22.9315H71.7832V26.8559C71.7832 27.7357 72.0905 28.0709 72.5932 28.0709C73.1239 28.0709 73.3334 27.8614 73.5429 27.624L73.92 27.9731C73.6267 28.3083 73.2776 28.5736 72.5932 28.5736C71.8251 28.5876 71.2107 28.0988 71.2107 26.8698Z" fill="white"/>
<path d="M75.4843 19.8451C75.4843 19.5658 75.7217 19.3563 75.973 19.3563C76.2244 19.3563 76.4618 19.5658 76.4618 19.8451C76.4618 20.1384 76.2244 20.3339 75.973 20.3339C75.7217 20.3339 75.4843 20.1524 75.4843 19.8451ZM75.6937 22.4567H76.2663V28.4759H75.6937V22.4567Z" fill="white"/>
<path d="M77.9979 25.4454C77.9979 23.7136 79.3805 22.3171 81.1402 22.3171C82.8999 22.3171 84.2545 23.7136 84.2545 25.4454C84.2545 27.1771 82.8999 28.5876 81.1402 28.5876C79.3945 28.5876 77.9979 27.1771 77.9979 25.4454ZM83.668 25.4454C83.668 23.9511 82.6485 22.8338 81.1542 22.8338C79.6598 22.8338 78.6124 23.9511 78.6124 25.4454C78.6124 26.9397 79.6598 28.0709 81.1542 28.0709C82.6485 28.0709 83.668 26.9397 83.668 25.4454Z" fill="white"/>
<path d="M85.9026 22.4567H86.4752L86.4612 23.7974C86.8662 22.8897 87.7042 22.3171 88.7655 22.3171C90.1062 22.3171 91 23.2109 91 24.7052V28.4619H90.4275V24.803C90.4275 23.56 89.8549 22.8338 88.6957 22.8338C87.3969 22.8338 86.4891 23.6857 86.4891 25.0962V28.4619H85.9166V22.4567H85.9026Z" fill="white"/>
<path d="M28.0709 6.64764C28.0709 2.87692 30.9618 0.153625 34.5929 0.153625C38.196 0.153625 41.1008 2.86295 41.1008 6.64764C41.1008 10.4184 38.196 13.1416 34.5929 13.1416C30.9758 13.1277 28.0709 10.4184 28.0709 6.64764ZM39.0898 6.64764C39.0898 3.95227 37.2324 1.92726 34.5929 1.92726C31.9534 1.92726 30.082 3.95227 30.082 6.64764C30.082 9.343 31.9534 11.368 34.5929 11.368C37.2324 11.354 39.0898 9.343 39.0898 6.64764Z" fill="white"/>
<path d="M43.1398 5.16722H45.0391L44.9833 6.61965C45.486 5.65602 46.4078 4.99963 47.7485 4.99963C49.7456 4.99963 51.3656 6.68947 51.3656 9.04966C51.3656 11.4099 49.7316 13.1416 47.7066 13.1416C46.4078 13.1416 45.4721 12.5131 45.0252 11.6473V16.9263H43.1259V5.16722H43.1398ZM49.4243 9.0357C49.4243 7.62517 48.5724 6.66154 47.2178 6.66154C45.8492 6.66154 44.9554 7.62517 44.9554 9.0357C44.9554 10.5021 45.8492 11.4657 47.2178 11.4657C48.5864 11.4797 49.4243 10.5161 49.4243 9.0357Z" fill="white"/>
<path d="M57.7897 11.5496C58.8092 11.5496 59.5494 11.1446 59.9963 10.7116L61.0856 11.8708C60.3594 12.597 59.3539 13.1417 57.8037 13.1417C55.1223 13.1417 53.4045 11.4099 53.4045 9.07767C53.4045 6.75937 55.2201 5.01367 57.5663 5.01367C60.2198 5.01367 61.728 6.98282 61.6024 9.72008H55.3178C55.5413 10.8234 56.3653 11.5496 57.7897 11.5496ZM59.717 8.39335C59.5494 7.33196 58.893 6.54989 57.5942 6.54989C56.3792 6.54989 55.5413 7.22024 55.3318 8.39335H59.717Z" fill="white"/>
<path d="M63.6832 5.16722H65.5546L65.5127 6.61965C66.0015 5.60016 66.9791 4.99963 68.1522 4.99963C69.884 4.99963 71.071 6.22861 71.071 8.33742V12.96H69.1996V8.49104C69.1996 7.37379 68.6829 6.73137 67.5796 6.73137C66.3507 6.73137 65.5546 7.47155 65.5546 8.72846V12.96H63.6832V5.16722Z" fill="white"/>
<path d="M73.1239 10.9909L74.7299 10.0133C75.1768 10.8093 75.6936 11.368 76.6293 11.368C77.6907 11.368 78.375 10.8652 78.375 9.39882V0.321167H80.3441V9.41278C80.3441 11.9266 78.8498 13.1137 76.727 13.1137C74.8277 13.1276 73.7244 12.164 73.1239 10.9909Z" fill="white"/>
<path d="M82.3412 10.5161L83.9612 9.6223C84.5478 10.5999 85.3159 11.382 86.8521 11.382C88.1369 11.382 89.0447 10.6837 89.0447 9.65023C89.0447 8.56091 88.3045 8.07212 86.9219 7.45763L86.084 7.08056C84.2405 6.25659 83.1233 5.33486 83.1233 3.37967C83.1233 1.50828 84.5757 0.167581 86.6705 0.167581C88.3464 0.153616 89.4776 0.796036 90.2318 2.1507L88.6955 3.10036C88.2067 2.26242 87.6621 1.87139 86.6705 1.87139C85.665 1.87139 85.0366 2.48587 85.0366 3.33778C85.0366 4.28744 85.5673 4.70641 86.8521 5.26503L87.6761 5.6421C89.8268 6.59177 90.9719 7.58332 90.9719 9.6223C90.9719 11.8289 89.2402 13.1137 86.866 13.1137C84.4919 13.1277 83.0534 11.9406 82.3412 10.5161Z" fill="white"/>
<defs>
<linearGradient id="paint0_linear_1_134" x1="2.63662" y1="4.52716" x2="22.1846" y2="24.0751" gradientUnits="userSpaceOnUse">
<stop offset="0.2145" stop-color="#0075C9"/>
<stop offset="0.7067" stop-color="#80BC00"/>
<stop offset="1" stop-color="#FDE021"/>
</linearGradient>
</defs>
</svg>